<svg id="visual" viewBox="0 0 900 600" width="900" height="600" xmlns="http://www.w3.org/2000/svg" xmlns:xlink="http://www.w3.org/1999/xlink" version="1.1"><rect x="0" y="0" width="900" height="600" fill="#7bc1a9"></rect><g transform="translate(429.43485351457474 310.17890756859424)"><path d="M127.8 -219.4C166.7 -199 199.8 -166.7 216.7 -128.2C233.6 -89.7 234.3 -44.8 224.6 -5.6C215 33.7 195 67.3 180.8 110.6C166.6 153.9 158.3 206.9 129.2 219.2C100 231.5 50 203.3 1.5 200.7C-47 198.1 -94 221.1 -127.1 211.1C-160.1 201 -179.2 157.7 -186.4 117C-193.5 76.3 -188.8 38.2 -177.4 6.6C-166 -25 -147.9 -50 -133.9 -78.7C-119.8 -107.4 -109.6 -139.9 -88 -170.2C-66.3 -200.6 -33.2 -228.8 5.7 -238.6C44.5 -248.4 89 -239.8 127.8 -219.4" fill="#e8a87c"></path></g></svg>