<svg id="visual" viewBox="0 0 900 600" width="900" height="600" xmlns="http://www.w3.org/2000/svg" xmlns:xlink="http://www.w3.org/1999/xlink" version="1.1"><rect x="0" y="0" width="900" height="600" fill="#7bc1a9"></rect><g transform="translate(434.41801161077154 296.5863498239818)"><path d="M128.8 -208.7C164.8 -202.2 190.7 -163.6 217.5 -123.5C244.3 -83.3 272.2 -41.7 272.5 0.2C272.7 42 245.5 84 212.9 114.2C180.3 144.3 142.4 162.7 106 178.3C69.7 194 34.8 207 -3.6 213.2C-42 219.4 -84 218.8 -107.8 195.9C-131.6 173 -137.3 127.7 -158.1 91.4C-178.9 55 -215 27.5 -231.4 -9.5C-247.9 -46.5 -244.7 -93 -215.4 -114.7C-186.1 -136.3 -130.5 -133.1 -90.3 -137.2C-50 -141.3 -25 -152.6 10.7 -171.1C46.3 -189.6 92.7 -215.2 128.8 -208.7" fill="#e8a87c"></path></g></svg>