<svg id="visual" viewBox="0 0 1920 1080" width="1920" height="1080" xmlns="http://www.w3.org/2000/svg" xmlns:xlink="http://www.w3.org/1999/xlink" version="1.1"><rect x="0" y="0" width="1920" height="1080" fill="#001220"></rect><path d="M0 677L45.7 688C91.3 699 182.7 721 274.2 716.5C365.7 712 457.3 681 548.8 673.7C640.3 666.3 731.7 682.7 823 700.5C914.3 718.3 1005.7 737.7 1097 744.2C1188.3 750.7 1279.7 744.3 1371.2 725.3C1462.7 706.3 1554.3 674.7 1645.8 680.5C1737.3 686.3 1828.7 729.7 1874.3 751.3L1920 773L1920 1081L1874.3 1081C1828.7 1081 1737.3 1081 1645.8 1081C1554.3 1081 1462.7 1081 1371.2 1081C1279.7 1081 1188.3 1081 1097 1081C1005.7 1081 914.3 1081 823 1081C731.7 1081 640.3 1081 548.8 1081C457.3 1081 365.7 1081 274.2 1081C182.7 1081 91.3 1081 45.7 1081L0 1081Z" fill="#fa7268"></path><path d="M0 736L45.7 756.2C91.3 776.3 182.7 816.7 274.2 819C365.7 821.3 457.3 785.7 548.8 773C640.3 760.3 731.7 770.7 823 773.8C914.3 777 1005.7 773 1097 767.5C1188.3 762 1279.7 755 1371.2 758C1462.7 761 1554.3 774 1645.8 793.3C1737.3 812.7 1828.7 838.3 1874.3 851.2L1920 864L1920 1081L1874.3 1081C1828.7 1081 1737.3 1081 1645.8 1081C1554.3 1081 1462.7 1081 1371.2 1081C1279.7 1081 1188.3 1081 1097 1081C1005.7 1081 914.3 1081 823 1081C731.7 1081 640.3 1081 548.8 1081C457.3 1081 365.7 1081 274.2 1081C182.7 1081 91.3 1081 45.7 1081L0 1081Z" fill="#ef5f67"></path><path d="M0 911L45.7 904.3C91.3 897.7 182.7 884.3 274.2 878C365.7 871.7 457.3 872.3 548.8 869.7C640.3 867 731.7 861 823 849.8C914.3 838.7 1005.7 822.3 1097 828.5C1188.3 834.7 1279.7 863.3 1371.2 881.7C1462.7 900 1554.3 908 1645.8 897.7C1737.3 887.3 1828.7 858.7 1874.3 844.3L1920 830L1920 1081L1874.3 1081C1828.7 1081 1737.3 1081 1645.8 1081C1554.3 1081 1462.7 1081 1371.2 1081C1279.7 1081 1188.3 1081 1097 1081C1005.7 1081 914.3 1081 823 1081C731.7 1081 640.3 1081 548.8 1081C457.3 1081 365.7 1081 274.2 1081C182.7 1081 91.3 1081 45.7 1081L0 1081Z" fill="#e34c67"></path><path d="M0 866L45.7 867.8C91.3 869.7 182.7 873.3 274.2 884.2C365.7 895 457.3 913 548.8 924.3C640.3 935.7 731.7 940.3 823 933.7C914.3 927 1005.7 909 1097 904.8C1188.3 900.7 1279.7 910.3 1371.2 907.5C1462.7 904.7 1554.3 889.3 1645.8 896.3C1737.3 903.3 1828.7 932.7 1874.3 947.3L1920 962L1920 1081L1874.3 1081C1828.7 1081 1737.3 1081 1645.8 1081C1554.3 1081 1462.7 1081 1371.2 1081C1279.7 1081 1188.3 1081 1097 1081C1005.7 1081 914.3 1081 823 1081C731.7 1081 640.3 1081 548.8 1081C457.3 1081 365.7 1081 274.2 1081C182.7 1081 91.3 1081 45.7 1081L0 1081Z" fill="#d53867"></path><path d="M0 951L45.7 951.8C91.3 952.7 182.7 954.3 274.2 954C365.7 953.7 457.3 951.3 548.8 955.5C640.3 959.7 731.7 970.3 823 981.2C914.3 992 1005.7 1003 1097 1003.8C1188.3 1004.7 1279.7 995.3 1371.2 995.2C1462.7 995 1554.3 1004 1645.8 999C1737.3 994 1828.7 975 1874.3 965.5L1920 956L1920 1081L1874.3 1081C1828.7 1081 1737.3 1081 1645.8 1081C1554.3 1081 1462.7 1081 1371.2 1081C1279.7 1081 1188.3 1081 1097 1081C1005.7 1081 914.3 1081 823 1081C731.7 1081 640.3 1081 548.8 1081C457.3 1081 365.7 1081 274.2 1081C182.7 1081 91.3 1081 45.7 1081L0 1081Z" fill="#c62368"></path></svg>