<svg id="visual" viewBox="0 0 960 300" width="960" height="300" xmlns="http://www.w3.org/2000/svg" xmlns:xlink="http://www.w3.org/1999/xlink" version="1.1"><rect x="0" y="0" width="960" height="300" fill="#001220"></rect><path d="M0 104L22.8 106.3C45.7 108.7 91.3 113.3 137 113.8C182.7 114.3 228.3 110.7 274 105.7C319.7 100.7 365.3 94.3 411.2 94.7C457 95 503 102 548.8 101.2C594.7 100.3 640.3 91.7 686 88C731.7 84.3 777.3 85.7 823 88.8C868.7 92 914.3 97 937.2 99.5L960 102L960 0L937.2 0C914.3 0 868.7 0 823 0C777.3 0 731.7 0 686 0C640.3 0 594.7 0 548.8 0C503 0 457 0 411.2 0C365.3 0 319.7 0 274 0C228.3 0 182.7 0 137 0C91.3 0 45.7 0 22.8 0L0 0Z" fill="#c62368"></path><path d="M0 63L22.8 67.3C45.7 71.7 91.3 80.3 137 86.2C182.7 92 228.3 95 274 94.2C319.7 93.3 365.3 88.7 411.2 85.8C457 83 503 82 548.8 83.3C594.7 84.7 640.3 88.3 686 89.5C731.7 90.7 777.3 89.3 823 85.3C868.7 81.3 914.3 74.7 937.2 71.3L960 68L960 0L937.2 0C914.3 0 868.7 0 823 0C777.3 0 731.7 0 686 0C640.3 0 594.7 0 548.8 0C503 0 457 0 411.2 0C365.3 0 319.7 0 274 0C228.3 0 182.7 0 137 0C91.3 0 45.7 0 22.8 0L0 0Z" fill="#d53867"></path><path d="M0 72L22.8 68.7C45.7 65.3 91.3 58.7 137 57.7C182.7 56.7 228.3 61.3 274 61.5C319.7 61.7 365.3 57.3 411.2 53.7C457 50 503 47 548.8 47.5C594.7 48 640.3 52 686 55.3C731.7 58.7 777.3 61.3 823 64C868.7 66.7 914.3 69.3 937.2 70.7L960 72L960 0L937.2 0C914.3 0 868.7 0 823 0C777.3 0 731.7 0 686 0C640.3 0 594.7 0 548.8 0C503 0 457 0 411.2 0C365.3 0 319.7 0 274 0C228.3 0 182.7 0 137 0C91.3 0 45.7 0 22.8 0L0 0Z" fill="#e34c67"></path><path d="M0 47L22.8 47.5C45.7 48 91.3 49 137 49.5C182.7 50 228.3 50 274 46.5C319.7 43 365.3 36 411.2 34.8C457 33.7 503 38.3 548.8 39C594.7 39.7 640.3 36.3 686 37.5C731.7 38.7 777.3 44.3 823 48.5C868.7 52.7 914.3 55.3 937.2 56.7L960 58L960 0L937.2 0C914.3 0 868.7 0 823 0C777.3 0 731.7 0 686 0C640.3 0 594.7 0 548.8 0C503 0 457 0 411.2 0C365.3 0 319.7 0 274 0C228.3 0 182.7 0 137 0C91.3 0 45.7 0 22.8 0L0 0Z" fill="#ef5f67"></path><path d="M0 31L22.8 30.8C45.7 30.7 91.3 30.3 137 27.5C182.7 24.7 228.3 19.3 274 17C319.7 14.7 365.3 15.3 411.2 16.8C457 18.3 503 20.7 548.8 23.5C594.7 26.3 640.3 29.7 686 28.3C731.7 27 777.3 21 823 20C868.7 19 914.3 23 937.2 25L960 27L960 0L937.2 0C914.3 0 868.7 0 823 0C777.3 0 731.7 0 686 0C640.3 0 594.7 0 548.8 0C503 0 457 0 411.2 0C365.3 0 319.7 0 274 0C228.3 0 182.7 0 137 0C91.3 0 45.7 0 22.8 0L0 0Z" fill="#fa7268"></path></svg>