<svg id="visual" viewBox="0 0 960 300" width="960" height="300" xmlns="http://www.w3.org/2000/svg" xmlns:xlink="http://www.w3.org/1999/xlink" version="1.1"><path d="M0 22L14.5 24C29 26 58 30 87.2 31C116.3 32 145.7 30 174.8 30.5C204 31 233 34 262 35.5C291 37 320 37 349 39.5C378 42 407 47 436.2 47C465.3 47 494.7 42 523.8 41C553 40 582 43 611 43C640 43 669 40 698 38.5C727 37 756 37 785.2 38C814.3 39 843.7 41 872.8 41.5C902 42 931 41 945.5 40.5L960 40L960 0L945.5 0C931 0 902 0 872.8 0C843.7 0 814.3 0 785.2 0C756 0 727 0 698 0C669 0 640 0 611 0C582 0 553 0 523.8 0C494.7 0 465.3 0 436.2 0C407 0 378 0 349 0C320 0 291 0 262 0C233 0 204 0 174.8 0C145.7 0 116.3 0 87.2 0C58 0 29 0 14.5 0L0 0Z" fill="#6198ff"></path><path d="M0 100L14.5 103C29 106 58 112 87.2 121.5C116.3 131 145.7 144 174.8 150C204 156 233 155 262 154C291 153 320 152 349 146C378 140 407 129 436.2 122C465.3 115 494.7 112 523.8 113.5C553 115 582 121 611 127C640 133 669 139 698 145.5C727 152 756 159 785.2 156.5C814.3 154 843.7 142 872.8 137C902 132 931 134 945.5 135L960 136L960 38L945.5 38.5C931 39 902 40 872.8 39.5C843.7 39 814.3 37 785.2 36C756 35 727 35 698 36.5C669 38 640 41 611 41C582 41 553 38 523.8 39C494.7 40 465.3 45 436.2 45C407 45 378 40 349 37.5C320 35 291 35 262 33.5C233 32 204 29 174.8 28.5C145.7 28 116.3 30 87.2 29C58 28 29 24 14.5 22L0 20Z" fill="#3c80ff"></path><path d="M0 139L14.5 143C29 147 58 155 87.2 167.5C116.3 180 145.7 197 174.8 202C204 207 233 200 262 200C291 200 320 207 349 200.5C378 194 407 174 436.2 166C465.3 158 494.7 162 523.8 165C553 168 582 170 611 171.5C640 173 669 174 698 179C727 184 756 193 785.2 192.5C814.3 192 843.7 182 872.8 179C902 176 931 180 945.5 182L960 184L960 134L945.5 133C931 132 902 130 872.8 135C843.7 140 814.3 152 785.2 154.5C756 157 727 150 698 143.5C669 137 640 131 611 125C582 119 553 113 523.8 111.5C494.7 110 465.3 113 436.2 120C407 127 378 138 349 144C320 150 291 151 262 152C233 153 204 154 174.8 148C145.7 142 116.3 129 87.2 119.5C58 110 29 104 14.5 101L0 98Z" fill="#0066ff"></path><path d="M0 244L14.5 247C29 250 58 256 87.2 260C116.3 264 145.7 266 174.8 265C204 264 233 260 262 259C291 258 320 260 349 260C378 260 407 258 436.2 254.5C465.3 251 494.7 246 523.8 249C553 252 582 263 611 260C640 257 669 240 698 238C727 236 756 249 785.2 251C814.3 253 843.7 244 872.8 244C902 244 931 253 945.5 257.5L960 262L960 182L945.5 180C931 178 902 174 872.8 177C843.7 180 814.3 190 785.2 190.5C756 191 727 182 698 177C669 172 640 171 611 169.5C582 168 553 166 523.8 163C494.7 160 465.3 156 436.2 164C407 172 378 192 349 198.5C320 205 291 198 262 198C233 198 204 205 174.8 200C145.7 195 116.3 178 87.2 165.5C58 153 29 145 14.5 141L0 137Z" fill="#0059dd"></path><path d="M0 301L14.5 301C29 301 58 301 87.2 301C116.3 301 145.7 301 174.8 301C204 301 233 301 262 301C291 301 320 301 349 301C378 301 407 301 436.2 301C465.3 301 494.7 301 523.8 301C553 301 582 301 611 301C640 301 669 301 698 301C727 301 756 301 785.2 301C814.3 301 843.7 301 872.8 301C902 301 931 301 945.5 301L960 301L960 260L945.5 255.5C931 251 902 242 872.8 242C843.7 242 814.3 251 785.2 249C756 247 727 234 698 236C669 238 640 255 611 258C582 261 553 250 523.8 247C494.7 244 465.3 249 436.2 252.5C407 256 378 258 349 258C320 258 291 256 262 257C233 258 204 262 174.8 263C145.7 264 116.3 262 87.2 258C58 254 29 248 14.5 245L0 242Z" fill="#004cbb"></path></svg>