<svg id="visual" viewBox="0 0 960 540" width="960" height="540" xmlns="http://www.w3.org/2000/svg" xmlns:xlink="http://www.w3.org/1999/xlink" version="1.1"><rect x="0" y="0" width="960" height="540" fill="#7bc1a9"></rect><path d="M0 303L17.8 314C35.7 325 71.3 347 106.8 351.8C142.3 356.7 177.7 344.3 213.2 343.2C248.7 342 284.3 352 320 350C355.7 348 391.3 334 426.8 324.5C462.3 315 497.7 310 533.2 311.5C568.7 313 604.3 321 640 331.5C675.7 342 711.3 355 746.8 352.2C782.3 349.3 817.7 330.7 853.2 329.2C888.7 327.7 924.3 343.3 942.2 351.2L960 359L960 541L942.2 541C924.3 541 888.7 541 853.2 541C817.7 541 782.3 541 746.8 541C711.3 541 675.7 541 640 541C604.3 541 568.7 541 533.2 541C497.7 541 462.3 541 426.8 541C391.3 541 355.7 541 320 541C284.3 541 248.7 541 213.2 541C177.7 541 142.3 541 106.8 541C71.3 541 35.7 541 17.8 541L0 541Z" fill="#e27d5f"></path><path d="M0 348L17.8 356.8C35.7 365.7 71.3 383.3 106.8 387.7C142.3 392 177.7 383 213.2 381.5C248.7 380 284.3 386 320 383.2C355.7 380.3 391.3 368.7 426.8 367.2C462.3 365.7 497.7 374.3 533.2 377.8C568.7 381.3 604.3 379.7 640 382.7C675.7 385.7 711.3 393.3 746.8 389.8C782.3 386.3 817.7 371.7 853.2 368C888.7 364.3 924.3 371.7 942.2 375.3L960 379L960 541L942.2 541C924.3 541 888.7 541 853.2 541C817.7 541 782.3 541 746.8 541C711.3 541 675.7 541 640 541C604.3 541 568.7 541 533.2 541C497.7 541 462.3 541 426.8 541C391.3 541 355.7 541 320 541C284.3 541 248.7 541 213.2 541C177.7 541 142.3 541 106.8 541C71.3 541 35.7 541 17.8 541L0 541Z" fill="#e07e73"></path><path d="M0 425L17.8 426.2C35.7 427.3 71.3 429.7 106.8 426.2C142.3 422.7 177.7 413.3 213.2 411.8C248.7 410.3 284.3 416.7 320 418.2C355.7 419.7 391.3 416.3 426.8 416.3C462.3 416.3 497.7 419.7 533.2 414.8C568.7 410 604.3 397 640 399C675.7 401 711.3 418 746.8 421.7C782.3 425.3 817.7 415.7 853.2 410.7C888.7 405.7 924.3 405.3 942.2 405.2L960 405L960 541L942.2 541C924.3 541 888.7 541 853.2 541C817.7 541 782.3 541 746.8 541C711.3 541 675.7 541 640 541C604.3 541 568.7 541 533.2 541C497.7 541 462.3 541 426.8 541C391.3 541 355.7 541 320 541C284.3 541 248.7 541 213.2 541C177.7 541 142.3 541 106.8 541C71.3 541 35.7 541 17.8 541L0 541Z" fill="#d98285"></path><path d="M0 450L17.8 452C35.7 454 71.3 458 106.8 454.2C142.3 450.3 177.7 438.7 213.2 436.7C248.7 434.7 284.3 442.3 320 445.7C355.7 449 391.3 448 426.8 444.3C462.3 440.7 497.7 434.3 533.2 434C568.7 433.7 604.3 439.3 640 441.8C675.7 444.3 711.3 443.7 746.8 445.7C782.3 447.7 817.7 452.3 853.2 452.2C888.7 452 924.3 447 942.2 444.5L960 442L960 541L942.2 541C924.3 541 888.7 541 853.2 541C817.7 541 782.3 541 746.8 541C711.3 541 675.7 541 640 541C604.3 541 568.7 541 533.2 541C497.7 541 462.3 541 426.8 541C391.3 541 355.7 541 320 541C284.3 541 248.7 541 213.2 541C177.7 541 142.3 541 106.8 541C71.3 541 35.7 541 17.8 541L0 541Z" fill="#cf8793"></path><path d="M0 475L17.8 477.8C35.7 480.7 71.3 486.3 106.8 489.8C142.3 493.3 177.7 494.7 213.2 491.3C248.7 488 284.3 480 320 477.3C355.7 474.7 391.3 477.3 426.8 478.8C462.3 480.3 497.7 480.7 533.2 482.2C568.7 483.7 604.3 486.3 640 487.2C675.7 488 711.3 487 746.8 488.3C782.3 489.7 817.7 493.3 853.2 494.2C888.7 495 924.3 493 942.2 492L960 491L960 541L942.2 541C924.3 541 888.7 541 853.2 541C817.7 541 782.3 541 746.8 541C711.3 541 675.7 541 640 541C604.3 541 568.7 541 533.2 541C497.7 541 462.3 541 426.8 541C391.3 541 355.7 541 320 541C284.3 541 248.7 541 213.2 541C177.7 541 142.3 541 106.8 541C71.3 541 35.7 541 17.8 541L0 541Z" fill="#c38d9d"></path></svg>