<svg id="visual" viewBox="0 0 960 540" width="960" height="540" xmlns="http://www.w3.org/2000/svg" xmlns:xlink="http://www.w3.org/1999/xlink" version="1.1"><rect x="0" y="0" width="960" height="540" fill="#7bc1a9"></rect><path d="M0 297L17.8 292C35.7 287 71.3 277 106.8 279.8C142.3 282.7 177.7 298.3 213.2 304.8C248.7 311.3 284.3 308.7 320 302.7C355.7 296.7 391.3 287.3 426.8 283C462.3 278.7 497.7 279.3 533.2 283.7C568.7 288 604.3 296 640 288C675.7 280 711.3 256 746.8 250.2C782.3 244.3 817.7 256.7 853.2 264.3C888.7 272 924.3 275 942.2 276.5L960 278L960 0L942.2 0C924.3 0 888.7 0 853.2 0C817.7 0 782.3 0 746.8 0C711.3 0 675.7 0 640 0C604.3 0 568.7 0 533.2 0C497.7 0 462.3 0 426.8 0C391.3 0 355.7 0 320 0C284.3 0 248.7 0 213.2 0C177.7 0 142.3 0 106.8 0C71.3 0 35.7 0 17.8 0L0 0Z" fill="#e27d5f"></path><path d="M0 262L17.8 255.3C35.7 248.7 71.3 235.3 106.8 234.5C142.3 233.7 177.7 245.3 213.2 239.5C248.7 233.7 284.3 210.3 320 209C355.7 207.7 391.3 228.3 426.8 232.7C462.3 237 497.7 225 533.2 214C568.7 203 604.3 193 640 199C675.7 205 711.3 227 746.8 233.8C782.3 240.7 817.7 232.3 853.2 225.5C888.7 218.7 924.3 213.3 942.2 210.7L960 208L960 0L942.2 0C924.3 0 888.7 0 853.2 0C817.7 0 782.3 0 746.8 0C711.3 0 675.7 0 640 0C604.3 0 568.7 0 533.2 0C497.7 0 462.3 0 426.8 0C391.3 0 355.7 0 320 0C284.3 0 248.7 0 213.2 0C177.7 0 142.3 0 106.8 0C71.3 0 35.7 0 17.8 0L0 0Z" fill="#e07e73"></path><path d="M0 164L17.8 168.7C35.7 173.3 71.3 182.7 106.8 181.2C142.3 179.7 177.7 167.3 213.2 167.3C248.7 167.3 284.3 179.7 320 177.5C355.7 175.3 391.3 158.7 426.8 160.7C462.3 162.7 497.7 183.3 533.2 189.2C568.7 195 604.3 186 640 176C675.7 166 711.3 155 746.8 154.2C782.3 153.3 817.7 162.7 853.2 166.7C888.7 170.7 924.3 169.3 942.2 168.7L960 168L960 0L942.2 0C924.3 0 888.7 0 853.2 0C817.7 0 782.3 0 746.8 0C711.3 0 675.7 0 640 0C604.3 0 568.7 0 533.2 0C497.7 0 462.3 0 426.8 0C391.3 0 355.7 0 320 0C284.3 0 248.7 0 213.2 0C177.7 0 142.3 0 106.8 0C71.3 0 35.7 0 17.8 0L0 0Z" fill="#d98285"></path><path d="M0 101L17.8 100.7C35.7 100.3 71.3 99.7 106.8 99.8C142.3 100 177.7 101 213.2 102.2C248.7 103.3 284.3 104.7 320 105.8C355.7 107 391.3 108 426.8 110.8C462.3 113.7 497.7 118.3 533.2 124.8C568.7 131.3 604.3 139.7 640 142.3C675.7 145 711.3 142 746.8 136.2C782.3 130.3 817.7 121.7 853.2 118.5C888.7 115.3 924.3 117.7 942.2 118.8L960 120L960 0L942.2 0C924.3 0 888.7 0 853.2 0C817.7 0 782.3 0 746.8 0C711.3 0 675.7 0 640 0C604.3 0 568.7 0 533.2 0C497.7 0 462.3 0 426.8 0C391.3 0 355.7 0 320 0C284.3 0 248.7 0 213.2 0C177.7 0 142.3 0 106.8 0C71.3 0 35.7 0 17.8 0L0 0Z" fill="#cf8793"></path><path d="M0 54L17.8 55.3C35.7 56.7 71.3 59.3 106.8 61.3C142.3 63.3 177.7 64.7 213.2 66.5C248.7 68.3 284.3 70.7 320 70.2C355.7 69.7 391.3 66.3 426.8 69.5C462.3 72.7 497.7 82.3 533.2 86.3C568.7 90.3 604.3 88.7 640 84.7C675.7 80.7 711.3 74.3 746.8 68.2C782.3 62 817.7 56 853.2 55.3C888.7 54.7 924.3 59.3 942.2 61.7L960 64L960 0L942.2 0C924.3 0 888.7 0 853.2 0C817.7 0 782.3 0 746.8 0C711.3 0 675.7 0 640 0C604.3 0 568.7 0 533.2 0C497.7 0 462.3 0 426.8 0C391.3 0 355.7 0 320 0C284.3 0 248.7 0 213.2 0C177.7 0 142.3 0 106.8 0C71.3 0 35.7 0 17.8 0L0 0Z" fill="#c38d9d"></path></svg>